<?xml version="1.0" encoding="UTF-8"?>
<svg id="_Слой_2" data-name="Слой 2" xmlns="http://www.w3.org/2000/svg" viewBox="0 0 986.08 600.22">
  <defs>
    <style>
      .cls-1 {
        fill: #646033;
      }

      .cls-1, .cls-2, .cls-3, .cls-4, .cls-5, .cls-6, .cls-7 {
        stroke-width: 10px;
      }

      .cls-1, .cls-2, .cls-3, .cls-4, .cls-5, .cls-6, .cls-7, .cls-8 {
        stroke: #383502;
      }

      .cls-1, .cls-2, .cls-3, .cls-4, .cls-5, .cls-7, .cls-8 {
        stroke-miterlimit: 10;
      }

      .cls-1, .cls-2, .cls-3, .cls-5, .cls-6, .cls-8 {
        stroke-linecap: round;
      }

      .cls-9, .cls-3, .cls-7 {
        fill: #a3b711;
      }

      .cls-10 {
        font-family: InterV-SemiBold, 'Inter V';
        font-size: 104.22px;
        font-variation-settings: 'wght' 600, 'slnt' 0;
        font-weight: 600;
      }

      .cls-10, .cls-11 {
        fill: #fcfcfc;
      }

      .cls-2, .cls-6, .cls-8 {
        fill: none;
      }

      .cls-4 {
        fill: #ede9a9;
      }

      .cls-5, .cls-12 {
        fill: #383502;
      }

      .cls-6 {
        stroke-linejoin: round;
      }

      .cls-8 {
        stroke-width: 15px;
      }

      .cls-13 {
        fill: #e0dfce;
      }
    </style>
  </defs>
  <g id="_Слой_9" data-name="Слой 9">
    <g>
      <g id="_колпак" data-name="колпак">
        <path class="cls-11" d="m795.09,63.91c-12.71-2.22-25.16.15-35.67,5.9-10.15-31.92-37.25-57.25-72.53-63.41-35.54-6.2-69.86,8.71-90.16,35.68-7.99-9.38-19.17-16.13-32.26-18.41-29.8-5.2-58.18,14.74-63.38,44.54-5.2,29.8,14.74,58.18,44.54,63.38,5.81,1.01,11.57,1.06,17.11.28l-11.96,68.52,196.18,34.24,12.02-68.9c5.23,2.92,11.03,5.03,17.26,6.12,29.8,5.2,58.18-14.74,63.38-44.54,5.2-29.8-14.74-58.18-44.54-63.38Z"/>
        <path class="cls-12" d="m749.84,238.71c-1.05.74-2.37,1.07-3.73.83l-196.18-34.24c-1.31-.23-2.47-.97-3.23-2.05s-1.06-2.43-.83-3.73l10.84-62.14c-3.99.11-7.98-.18-11.93-.87-15.73-2.74-29.45-11.45-38.63-24.51s-12.73-28.92-9.98-44.65c2.74-15.73,11.45-29.45,24.51-38.63,13.06-9.18,28.92-12.73,44.65-9.98,11.72,2.04,22.56,7.56,31.08,15.73,22.44-26.42,56.91-39,91.33-33,34.15,5.96,62.24,29.25,74.54,61.39,10.61-4.54,22.13-5.89,33.66-3.87,32.47,5.67,54.28,36.69,48.61,69.16-5.67,32.47-36.69,54.28-69.16,48.61-4.35-.76-8.57-1.99-12.61-3.66l-10.89,62.38c-.24,1.36-1,2.5-2.05,3.23Zm-193.27-42.39l186.33,32.52,11.17-63.98c.28-1.59,1.31-2.95,2.77-3.65,1.46-.7,3.17-.64,4.59.15,4.89,2.73,10.17,4.6,15.69,5.56,13.52,2.36,26.74-1,37.17-8.33,10.43-7.33,18.07-18.63,20.43-32.15,4.72-27.04-13.44-52.87-40.48-57.59-11.21-1.96-22.42-.1-32.41,5.36-1.31.72-2.87.81-4.26.25-1.39-.56-2.45-1.7-2.9-3.13-9.97-31.36-36.26-54.35-68.62-60-32.65-5.7-65.34,7.24-85.31,33.76-.91,1.21-2.33,1.94-3.84,1.99s-2.97-.6-3.96-1.75c-7.5-8.8-17.91-14.74-29.31-16.73-13.1-2.29-26.3.67-37.18,8.31s-18.13,19.07-20.41,32.17c-2.29,13.1.67,26.3,8.31,37.18,7.65,10.88,19.07,18.13,32.17,20.41,5.15.9,10.38.98,15.55.25,1.58-.22,3.18.32,4.29,1.47,1.11,1.15,1.61,2.76,1.33,4.34l-11.1,63.59Z"/>
      </g>
      <g id="_шипы" data-name="шипы">
        <path class="cls-12" d="m797.43,267.96l30.11-29.11c2.07-2,1.36-4.95-1.4-5.78l-39.82-12.02c-3.26-.98-6.82,1.64-6.14,4.53l9.71,41.13c.68,2.9,5.08,3.63,7.54,1.25Z"/>
        <path class="cls-12" d="m793.8,327.89l38.43-16.64c2.64-1.14,3.01-4.15.72-5.9l-33.03-25.28c-2.7-2.07-6.96-.87-7.34,2.07l-5.4,41.92c-.38,2.96,3.48,5.19,6.62,3.83Z"/>
        <path class="cls-12" d="m772.67,379.35l41.46-5.93c2.85-.41,4-3.21,2.25-5.5l-25.21-33.08c-2.06-2.71-6.49-2.67-7.63.07l-16.25,39.01c-1.15,2.75,1.99,5.92,5.38,5.43Z"/>
        <path class="cls-12" d="m737.1,416.8l40.45,10.85c2.78.75,4.94-1.38,4.24-4.17l-10.16-40.33c-.83-3.3-4.92-5.01-7.04-2.94l-30.29,29.48c-2.14,2.08-.5,6.22,2.8,7.11Z"/>
      </g>
      <g id="_рука" data-name="рука">
        <g>
          <path class="cls-9" d="m493.74,483.32c-14.11-5.77-29.87-21.42-39.35-31.9-5.85-6.47-14.13-10.21-22.84-10.37l-38.8-.73c-21.69.12-31,32,8.22,46.12,12.84,4.62,23.78,23.88,32.78,32.88,45.96,45.96,76.01,34.72,98,1,15-23,41.33-75.91,27-98-18.36-28.3-60,39-80,50"/>
          <path class="cls-12" d="m494.94,478.98c.73.3.19.08-.19-.09-.32-.14-.64-.29-.96-.44-.76-.36-1.5-.74-2.24-1.13-1.43-.76-2.83-1.59-4.2-2.45s-2.83-1.85-4.2-2.84c-.65-.47-1.29-.94-1.93-1.42-.2-.15-.96-.73-.37-.27-.43-.33-.85-.66-1.27-1-5.36-4.27-10.38-8.96-15.18-13.85s-8.78-10.03-14.49-13.57-11.97-5.21-18.45-5.36c-5.9-.13-11.79-.22-17.69-.33-6.76-.13-13.53-.26-20.29-.38s-13.43,2.31-17.99,7.29c-5.41,5.91-7.24,14.25-5.02,21.93,2.89,10.04,11.45,17.37,20.47,21.95,3.07,1.56,6.28,2.9,9.53,4.04.57.2-.78-.39-.25-.1.13.07.28.13.41.19.27.13.55.27.82.41.6.31,1.18.65,1.75,1.01s1.16.76,1.73,1.16c.27.19.52.39.79.58-.73-.54-.05-.03.26.22,4.8,3.94,8.81,8.77,12.67,13.6,3.62,4.53,7.06,9.26,11.05,13.48,5.15,5.44,10.86,10.47,16.78,15.06,9.51,7.38,20.21,14.02,32.13,16.55,9.54,2.02,19.1,1.12,28.01-2.87,8.49-3.79,15.66-10.32,21.5-17.45,6.39-7.79,11.62-16.47,16.45-25.3,5.62-10.28,10.63-20.94,14.76-31.91,3.97-10.54,7.19-21.59,7.95-32.89.61-9.18-.85-18.95-7.13-26.06-4.92-5.57-12.37-6.98-19.28-4.68-7.86,2.61-14.58,8.12-20.64,13.59-6.96,6.28-13.34,13.17-19.71,20.02-5.74,6.17-11.4,12.51-17.72,18.1-.62.55-1.24,1.08-1.87,1.61-.31.26-.63.51-.94.76-.89.71.82-.6-.08.06-1.09.81-2.21,1.58-3.4,2.23-2.06,1.14-2.91,4.15-1.61,6.16s3.95,2.84,6.16,1.61c6.09-3.38,11.2-8.76,16-13.72,6.27-6.47,12.27-13.19,18.52-19.68,3.15-3.27,6.35-6.49,9.69-9.58,1.59-1.47,3.2-2.9,4.86-4.28.78-.65,1.57-1.27,2.36-1.9.22-.18-.85.64-.16.13.19-.14.37-.28.56-.42.4-.3.8-.59,1.21-.89,1.5-1.08,3.05-2.09,4.66-3.01.73-.42,1.47-.81,2.23-1.18.35-.17.7-.32,1.05-.49.64-.31-1.04.41-.38.16.2-.08.4-.16.6-.24,1.41-.54,2.86-.74,4.28-1.16-.22.07-1.29.14-.55.08.16-.01.32-.03.48-.04.34-.03.69-.04,1.04-.04.31,0,.63,0,.94.03.15.01.32.05.46.04.16,0-1.31-.23-.51-.07.66.13,1.3.29,1.94.5,1.1.36-.84-.43-.06-.04.31.16.62.3.92.48.28.16.56.34.83.52.14.09.27.2.41.29.11.07-.94-.78-.31-.23.56.5,1.11,1.01,1.61,1.57.15.17.29.34.43.51.47.54-.02.01-.22-.3.24.37.53.72.77,1.08.52.77.98,1.57,1.39,2.41.1.2.2.41.29.61.31.64.02.22-.09-.24.12.47.37.94.53,1.4.33.97.61,1.96.84,2.97.11.48.2.96.29,1.44.04.24.08.49.12.73.02.12.04.25.06.37.1.62-.05-.32-.06-.45.04,1.07.22,2.14.27,3.22.11,2.33.04,4.68-.15,7-.05.58-.1,1.15-.16,1.72-.03.29-.06.58-.1.87-.02.15-.04.29-.05.44-.07.61.14-.93.04-.32-.18,1.24-.37,2.49-.6,3.73-.48,2.64-1.08,5.25-1.76,7.84-1.43,5.43-3.21,10.77-5.21,16.02-.51,1.33-1.03,2.65-1.56,3.97-.26.63-.52,1.27-.78,1.9-.07.16-.13.31-.2.47.01-.03.32-.76.12-.29-.16.37-.31.73-.47,1.1-1.14,2.64-2.33,5.27-3.56,7.87-4.32,9.14-9.14,18.07-14.53,26.62-1.22,1.94-2.48,3.86-3.8,5.74-.74,1.06-1.5,2.1-2.28,3.12-.1.14-.72.87-.27.36s-.17.21-.28.35c-.39.49-.78.97-1.18,1.46-2.92,3.53-6.11,6.86-9.65,9.77-.2.16-.4.33-.6.49-.14.11-.85.67-.25.2s-.12.09-.26.19c-.24.18-.48.35-.72.53-.85.61-1.72,1.2-2.6,1.75-1.77,1.11-3.61,2.08-5.51,2.95-.64.29-.31.04.19-.07-.22.05-.46.19-.67.27-.49.19-.98.37-1.47.55-.95.33-1.91.62-2.88.88s-2.04.49-3.07.67c-.24.04-.48.08-.72.12-.71.12-.28-.02.23-.02-.52,0-1.06.13-1.58.17-2.13.18-4.27.19-6.41.02-.52-.04-1.04-.09-1.55-.15-.13-.01-.26-.03-.39-.05-.5-.05.59.09.54.08-.3-.06-.62-.09-.92-.14-1.12-.18-2.24-.4-3.34-.66-2.4-.57-4.76-1.31-7.06-2.2-.29-.11-.57-.22-.85-.34-.15-.06-1.07-.45-.46-.19s-.32-.14-.47-.21c-.34-.15-.68-.3-1.01-.46-1.24-.57-2.47-1.18-3.68-1.83-2.67-1.42-5.26-2.99-7.77-4.66-1.34-.89-2.65-1.81-3.94-2.76-.65-.47-1.29-.95-1.93-1.44-.16-.12-.32-.25-.48-.37.06.05.5.4.1.07-.38-.3-.76-.6-1.14-.9-5.6-4.48-11.11-9.32-15.94-14.64-7.87-8.66-13.99-19.02-23.19-26.43-2.31-1.86-4.73-3.62-7.45-4.83-1.61-.72-3.27-1.28-4.9-1.94-.18-.07-.36-.15-.55-.22-.06-.02-.66-.28-.18-.07s-.11-.05-.17-.08c-.17-.08-.35-.15-.52-.23-.73-.33-1.46-.67-2.18-1.02-2.56-1.26-5.03-2.7-7.35-4.36-.25-.18-.49-.37-.74-.55-.41-.29.32.25.31.24-.12-.07-.24-.19-.35-.28-.49-.4-.98-.8-1.45-1.22-.86-.76-1.69-1.56-2.47-2.4-.39-.41-.76-.84-1.13-1.27-.16-.2-.32-.4-.48-.59-.46-.56.58.81.02.02s-1.13-1.64-1.63-2.51c-.23-.4-.44-.8-.65-1.21-.1-.2-.2-.4-.29-.61-.08-.18-.46-1.04-.13-.27s.01,0-.06-.17c-.08-.2-.15-.4-.22-.61-.15-.43-.29-.87-.41-1.31-.24-.86-.36-1.73-.54-2.6.07.35.12,1.15.07.41-.02-.2-.04-.39-.05-.59-.03-.42-.04-.84-.04-1.26,0-.8.12-1.58.15-2.38-.01.32-.19,1.19-.05.45.04-.18.07-.37.1-.55.09-.42.19-.84.3-1.26.1-.35.21-.71.33-1.05.06-.17.13-.34.19-.52.29-.81-.2.44-.14.31.34-.68.65-1.36,1.04-2.02.19-.31.38-.62.59-.91.1-.15.22-.29.32-.44.35-.53-.76.91-.2.26.51-.6,1.03-1.19,1.61-1.73.27-.25.54-.49.82-.73.15-.13.72-.57.05-.05s-.03.03.14-.09c.63-.45,1.3-.86,1.98-1.23.33-.18.68-.34,1.02-.5.72-.36-.64.25-.37.15.21-.08.42-.17.63-.24.8-.29,1.61-.54,2.44-.72.39-.09.79-.16,1.18-.23.74-.13-.01.03-.39.04.24,0,.48-.05.72-.08.61-.05,1.22-.08,1.82-.08.56,0,1.12.02,1.67.03l8.87.17c7.76.15,15.52.29,23.29.44,1.64.03,3.29.05,4.93.09.59.01,1.19.04,1.78.08.39.03.78.08,1.18.11.53.04-.16-.03-.22-.04.26.04.52.08.77.12,1.6.27,3.18.67,4.72,1.18.37.12.74.25,1.1.39.18.07.36.14.54.21.06.02.66.28.18.07-.42-.18.69.32.88.41.41.2.81.4,1.21.62,1.43.77,2.79,1.65,4.09,2.62-.61-.46.1.09.31.27.3.25.6.51.89.77.63.57,1.24,1.17,1.83,1.79.97,1.03,1.9,2.08,2.86,3.11,2.13,2.29,4.31,4.53,6.53,6.73,5,4.94,10.25,9.61,15.84,13.88,5.12,3.92,10.54,7.3,16.51,9.77,2.18.9,5.04-.97,5.54-3.14.6-2.62-.81-4.57-3.14-5.54h0Z"/>
        </g>
      </g>
      <path class="cls-7" d="m687.12,593h86.76c-17.47-22.39-32.4-44.08-39.06-53.97l-47.7,53.97Z"/>
      <g id="_нога" data-name="нога">
        <path class="cls-9" d="m625.74,277.84l118,14-7.71,170c-5.29,67,2.22,88.79,4.97,128l.24.17c-42.36,0-78.64,0-121,0l.5,1s5-80-18-101c-18.12-16.54-12-52.17,5-101.17"/>
        <g>
          <path class="cls-12" d="m625.74,424.66c3.89.46,7.79.92,11.68,1.39,9.41,1.12,18.81,2.23,28.22,3.35,11.34,1.35,22.67,2.69,34.01,4.04,9.85,1.17,19.7,2.34,29.55,3.51,3.27.39,6.56.9,9.85,1.28-.07,1.56-.14,3.12-.21,4.68-.34,7.52-.68,15.03-1.02,22.55-.47,10.44-.95,20.87-1.42,31.31l-1.57,34.57c-.5,10.96-.99,21.92-1.49,32.88-.39,8.56-.78,17.12-1.16,25.68-.09,2.04-.19,4.09-.28,6.13h9.01c.03-.7.06-1.41.09-2.11.35-7.8.71-15.6,1.06-23.4.48-10.5.95-21,1.43-31.5.52-11.54,1.05-23.08,1.57-34.61.49-10.75.98-21.51,1.46-32.26.38-8.31.75-16.62,1.13-24.93.19-4.16.46-8.32.57-12.48,0-.18.02-.36.02-.55.12-2.63-2.17-4.22-4.5-4.5-3.89-.46-7.79-.92-11.68-1.39-9.41-1.12-18.81-2.23-28.22-3.35-11.34-1.35-22.67-2.69-34.01-4.04-9.85-1.17-19.7-2.34-29.55-3.51-4.74-.56-9.56-1.44-14.33-1.7-.07,0-.14-.02-.21-.02-2.42-.29-4.5,2.27-4.5,4.5,0,2.67,2.08,4.21,4.5,4.5Z"/>
          <path class="cls-12" d="m596.44,596c.16-2.65.42-5.3.76-7.93.04-.26.07-.53.11-.79.09-.59.17-1.17.27-1.76.19-1.2.39-2.4.61-3.59.45-2.5.95-4.99,1.5-7.47,2.46-11.13,5.72-22.08,9.29-32.91,1.01-3.08,2.05-6.14,3.11-9.21.8-2.3-.91-4.92-3.14-5.54-2.48-.68-4.74.84-5.54,3.14-7.17,20.71-14.1,42.18-15.85,64.16-.05.62-.09,1.26-.12,1.89h9Zm.77-8.01c.04-.31.02-.15,0,0h0Z"/>
        </g>
      </g>
      <g id="_пузо" data-name="пузо">
        <path class="cls-9" d="m642.74,446.32l-91.5-21.5s-11,22-42,63c-9.27,12.27-19,36.38-19,58.5,0,52.19,149,47.68,149,47.68"/>
        <path class="cls-12" d="m509.07,594c-8.6-12.99-13.83-28.89-13.83-47.68,0-20.81,9.05-43.66,17.99-55.48,30.92-40.9,42.03-62.86,42.48-63.78,1.23-2.47.23-5.47-2.23-6.71-2.47-1.23-5.47-.24-6.71,2.23-.11.22-11.24,22.19-41.52,62.22-9.94,13.15-20.01,38.5-20.01,61.52,0,17.33,4.21,33.46,12.28,47.68h11.55Z"/>
        <path class="cls-4" d="m613.35,594c-10.64-25.83-9.49-81.06,21.61-150l-83.72-19.18s-11,22-42,63c-9.27,12.27-19,36.38-19,58.5,0,18.09,4.8,34.14,13.07,47.68h110.04Z"/>
      </g>
      <g id="_голова" data-name="голова">
        <path class="cls-9" d="m506.85,301.46c-11.36-23.85-5.77-66.37,9.16-88.15,14.43-21.05,34.94-44.75,79.92-59.71,20.27-6.74,39.31-6.87,60.61-5.29,38.94,2.88,87.55,27.6,110.82,58.95,20.88,28.13,42.89,79.43,12.29,157.46-14.62,37.29-56.51,67.37-103.35,83.3-58.86,20.01-122,5.91-156.33-16.95-33.29-22.17-56.97-59.91-58.16-99.79-.07-2.35.76-4.65,2.31-6.42h0c13.59-14.06,32.81-21.53,52.12-24.68,12.19-1.99,24.79-2.4,36.81.46,12.02,2.85,23.45,9.17,31.05,18.9"/>
        <g id="_морда" data-name="морда">
          <path class="cls-12" d="m644.83,199.76c2.13-.21,4.27-.31,6.42-.26.53.01,1.07.04,1.6.06.66.02-.75-.06-.1,0,.3.03.59.05.89.07,1.06.1,2.13.22,3.18.38,2.11.32,4.21.76,6.28,1.32.46.12.92.25,1.37.39.23.07.46.14.68.21.01,0,1.13.36.47.15s.45.16.47.16c.22.08.45.16.67.24.56.21,1.11.42,1.67.64,1.99.8,3.93,1.71,5.82,2.73.84.45,1.67.92,2.49,1.41.46.28.91.57,1.37.85.61.38-.87-.6.08.06.25.17.49.33.74.5,1.76,1.22,3.46,2.54,5.07,3.94.76.66,1.51,1.35,2.23,2.05.38.37.76.75,1.14,1.13.17.17.33.34.49.51.09.09.89.94.46.48s.11.12.2.23c.24.27.47.54.7.81.38.45.76.91,1.13,1.38.74.93,1.44,1.89,2.11,2.87s1.31,1.98,1.91,3.01c.3.51.6,1.03.88,1.55.11.21.23.42.34.63.57,1.09-.24-.5.18.36,1.03,2.11,3.28,3.75,5.73,2.77,2.04-.81,3.88-3.46,2.77-5.73-8.44-17.25-25.04-29.73-43.95-33.2-5.28-.97-10.74-1.23-16.08-.69-2.34.23-4.47,2.31-4.2,4.79.26,2.36,2.28,4.45,4.79,4.2h0Z"/>
          <path class="cls-12" d="m507.87,191.55c-13.48,2.89-26.37,11.28-34.45,22.46-1.91,2.65-3.42,5.37-4.56,8.43-.82,2.22,1.11,5,3.3,5.44,2.62.52,4.56-.94,5.44-3.3-.5,1.34-.05.14.07-.14.15-.34.3-.67.46-1,.3-.61.62-1.2.96-1.79.42-.71.86-1.41,1.33-2.09.12-.18.24-.35.37-.53-.37.5-.4.55-.1.15.21-.26.41-.53.61-.8,2.32-2.95,5.01-5.54,7.87-7.96.26-.21.2-.17-.17.14.21-.16.42-.33.62-.49.42-.33.85-.65,1.28-.96.82-.6,1.66-1.18,2.5-1.73,1.74-1.14,3.54-2.18,5.39-3.13.44-.22.88-.44,1.32-.65.15-.07,1.72-.78.82-.39.98-.42,1.97-.81,2.97-1.17,2.09-.75,4.23-1.35,6.41-1.82,2.3-.49,3.83-3.36,3.1-5.56-.81-2.44-3.09-3.63-5.56-3.1h0Z"/>
          <g>
            <ellipse class="cls-11" cx="645.01" cy="271.34" rx="37.45" ry="42.86" transform="translate(-4.99 530.5) rotate(-44.55)"/>
            <g>
              <path class="cls-12" d="m607.38,254.84c.4-1.2-.36.8.13-.36.15-.35.29-.71.44-1.06.31-.7.64-1.38,1.01-2.05.3-.56.62-1.1.96-1.64.08-.13.81-1.15.19-.3.3-.41.6-.82.91-1.22.86-1.1,1.8-2.14,2.81-3.11.27-.27.55-.53.84-.79.13-.11,1.11-.92.24-.22.6-.48,1.2-.96,1.82-1.41,1.25-.9,2.56-1.71,3.92-2.44.23-.12.45-.24.68-.36.15-.07,1.32-.61.3-.16.82-.37,1.65-.71,2.5-1.02,1.32-.48,2.68-.89,4.05-1.21.38-.09.75-.16,1.13-.24,1.25-.28-.89.12.38-.07.76-.11,1.53-.22,2.3-.29,1.41-.14,2.82-.2,4.24-.19.77,0,1.54.03,2.31.08.13,0,1.4.13.39.02.51.05,1.03.11,1.54.17,2.95.39,5.87,1.06,8.7,1.97.37.12.74.24,1.11.37-.95-.33.27.11.38.15.61.23,1.21.47,1.81.72,1.56.65,3.08,1.38,4.57,2.17,3.22,1.71,5.39,3.14,7.94,5.07,3.11,2.36,6.02,4.96,8.78,7.72,1.38,1.38,2.72,2.81,4.03,4.27.3.34.6.67.9,1.01.1.12,1.24,1.44.69.79.68.8,1.35,1.61,2.01,2.43,1.48,1.82,4.09,2.86,6.22,1.34,1.81-1.29,2.93-4.26,1.34-6.22-9.48-11.7-20.87-22.58-35.3-27.74-13.32-4.76-28.36-4.73-40.51,3.21-6.84,4.47-11.94,10.92-14.53,18.67-.75,2.24,1.23,4.97,3.45,5.35,2.62.45,4.55-1.06,5.35-3.45h0Z"/>
              <path class="cls-12" d="m606.96,295.79c7.18,8.58,16.68,14.72,27.53,17.56s22.69,1.88,32.96-2.59c6.18-2.69,11.72-6.35,16.52-11.09,1.68-1.66,1.44-4.88-.36-6.36-1.99-1.62-4.56-1.42-6.36.36-.49.48-.98.95-1.48,1.41-.2.18-.41.36-.61.55.64-.58.12-.1-.02.01-1.06.86-2.14,1.7-3.26,2.47-2.08,1.44-4.27,2.69-6.55,3.8-.72.35,1-.42-.21.09-.25.11-.5.22-.75.33-.5.21-1.01.42-1.52.61-1.27.49-2.57.93-3.88,1.31-1.18.34-2.37.64-3.58.9-.18.04-1.75.32-.86.18-.74.12-1.48.23-2.23.32-2.51.29-5.04.39-7.56.27-.32-.02-.64-.04-.96-.06-.68-.03.67.07,0,0-.58-.06-1.15-.12-1.72-.2-1.27-.17-2.54-.39-3.79-.67-1.13-.25-2.25-.53-3.36-.86-.49-.15-.98-.3-1.47-.46-.24-.08-.49-.16-.73-.25.91.32-.17-.07-.36-.15-2.28-.88-4.49-1.93-6.61-3.14-.56-.32-1.11-.65-1.66-.99-.22-.14-.44-.27-.65-.41-.26-.17-.97-.65-.32-.2-1.16-.81-2.29-1.66-3.37-2.56-.99-.82-1.94-1.68-2.86-2.58-.46-.45-.91-.91-1.35-1.38-.22-.23-.44-.47-.65-.71-.13-.14-.26-.29-.38-.43.36.43.37.44.03.04-1.51-1.8-4.07-2.87-6.22-1.34-1.79,1.27-2.96,4.29-1.34,6.22h0Z"/>
              <path class="cls-12" d="m658.69,293.92c-13.59,2.3-26.87-8.99-29.61-25.17s6.1-31.2,19.69-33.5,26.87,8.99,29.61,25.17c2.73,16.17-6.1,31.2-19.69,33.5Zm-7.91-46.84c-6.95,1.17-11.46,10.18-9.86,19.67,1.6,9.49,8.83,16.51,15.78,15.34s11.46-10.18,9.86-19.67c-1.6-9.49-8.83-16.51-15.78-15.34Z"/>
            </g>
          </g>
          <g>
            <ellipse class="cls-11" cx="524.22" cy="277.43" rx="36.83" ry="25.29" transform="translate(212.75 782.17) rotate(-86.21)"/>
            <g>
              <path class="cls-12" d="m541.08,248.03c-.62-.73.47.45-.19-.21-.2-.2-.39-.41-.59-.61-.4-.4-.82-.77-1.24-1.13-.35-.3-.71-.58-1.08-.84-.09-.06-.83-.55-.2-.15-.3-.19-.6-.38-.91-.56-.85-.49-1.71-.91-2.59-1.25-.24-.1-.48-.19-.73-.27-.11-.04-.92-.27-.21-.07-.49-.14-.99-.27-1.48-.37-.99-.2-1.99-.33-2.99-.37-.17,0-.33-.01-.5-.01-.11,0-.94.03-.22,0-.58.03-1.16.07-1.73.15-.9.12-1.79.31-2.66.57-.24.07-.47.15-.71.23-.79.24.53-.23-.23.08-.46.19-.92.39-1.38.61-.83.4-1.64.87-2.42,1.38-.43.28-.85.58-1.26.89-.07.05-.74.59-.21.16-.27.22-.54.44-.8.68-1.52,1.34-2.92,2.87-4.19,4.54-.17.22-.33.44-.49.67.42-.58-.12.17-.16.24-.26.38-.52.78-.77,1.17-.65,1.03-1.26,2.1-1.83,3.21-1.23,2.39-1.96,4.2-2.74,6.52-.95,2.82-1.71,5.75-2.33,8.74-.31,1.5-.58,3.01-.83,4.54-.06.35-.11.7-.16,1.06-.02.12-.21,1.49-.12.82-.11.83-.21,1.65-.31,2.48-.22,1.85-1.33,3.54-3.02,3.2-1.44-.29-3.04-2.04-2.81-4.03,1.4-11.88,4.13-23.84,10.46-32.75,5.84-8.22,14.22-13.57,23.62-12.15,5.29.8,10.27,3.65,14.28,8.35,1.16,1.36.96,4.05-.15,5.11-1.31,1.26-2.88.86-4.12-.59h0Z"/>
              <path class="cls-12" d="m520.57,256.56c2.44-13.69,11.07-21.38,19.24-17.12s12.83,18.85,10.39,32.55c-2.44,13.69-11.07,21.38-19.24,17.12-8.17-4.25-12.83-18.85-10.39-32.55Zm7.11,3.7c-1.43,8.03.89,16.65,5.06,18.83,4.18,2.17,8.91-2.77,10.34-10.81,1.43-8.03-.89-16.65-5.06-18.83-4.18-2.17-8.91,2.77-10.34,10.81Z"/>
            </g>
            <ellipse class="cls-11" cx="524.98" cy="258.07" rx="7.49" ry="8.57" transform="translate(-59 223.84) rotate(-22.82)"/>
          </g>
          <ellipse class="cls-9" cx="522.58" cy="321.04" rx="45.5" ry="25.5" transform="translate(-51.97 106.46) rotate(-11.08)"/>
          <path class="cls-12" d="m520.26,337.43c5.23,15.34,24.84,18.36,37.94,11.83,3.36-1.67,6.24-4.27,8.07-7.56,1.15-2.06.17-5.07-1.98-6.05-2.29-1.04-4.82-.22-6.05,1.98-.12.22-.38.52-.46.76.02-.06.72-.93.27-.41-.07.08-.14.18-.21.27-.41.51-.86.97-1.32,1.43-.08.08-.18.15-.26.24-.4.4.84-.65.38-.32-.23.16-.44.35-.67.51-.57.41-1.16.78-1.77,1.13-.26.14-.52.28-.78.42-.66.35.34-.16.4-.18-.16.05-.32.14-.47.21-.65.28-1.31.53-1.97.75s-1.29.4-1.95.56c-.36.09-.71.16-1.07.24-.12.03-.3.03-.41.08.75-.37.62-.1.05-.02-1.44.21-2.89.31-4.34.3-.33,0-.66-.01-.99-.02-.19,0-.38-.02-.56-.03-.79-.03.24-.01.3.03-.35-.28-1.76-.22-2.23-.3-.69-.12-1.37-.27-2.05-.45-.36-.1-.71-.21-1.07-.31-.09-.03-.31-.15-.4-.13.61.22.75.27.43.15-.13-.05-.26-.1-.39-.15-.6-.23-1.18-.5-1.75-.78-.32-.16-.64-.34-.96-.52-.19-.11-1.27-.81-.66-.39s-.43-.33-.61-.47c-.28-.23-.56-.46-.82-.7-.3-.27-.58-.57-.87-.86-.14-.14-.5-.62-.06-.05.48.63-.02-.03-.13-.17-.51-.66-.97-1.36-1.37-2.09-.07-.12-.12-.26-.2-.38-.31-.46.39.96.08.18-.18-.46-.37-.91-.52-1.38-.76-2.22-3.32-3.79-5.64-2.95s-3.76,3.26-2.95,5.64h0Z"/>
          <path class="cls-12" d="m468.25,366.7c4.19.13,8.2-1.84,11.39-4.4,3.66-2.94,6.05-7.51,6.16-12.22.08-3.39-.96-6.71-2.55-9.67-1.12-2.07-4.04-3.05-6.11-1.79s-2.99,3.89-1.79,6.11c.28.53.55,1.06.79,1.61.06.15.11.31.19.45.03.05-.34-1.03-.22-.57.07.3.2.58.28.88.14.49.26.98.35,1.49.03.18.17.56.11.72-.01.03-.08-1.24-.06-.56,0,.13.02.26.02.4.02.45,0,.9-.03,1.35-.02.22-.14,1.02,0,.17s-.01.02-.06.24c-.09.41-.21.81-.35,1.2-.05.13-.11.5-.22.57-.05.03.55-1.14.25-.58-.05.1-.1.21-.15.31-.18.36-.38.71-.6,1.05-.11.17-.22.33-.33.5-.13.19-.66.86-.1.15s.07-.1-.07.06c-.13.15-.26.29-.4.43-.29.3-.6.59-.91.86-.15.13-.29.25-.45.37-.06.05-.13.1-.19.15-.47.39.61-.43.58-.42-.32.1-.72.5-1.01.68-.64.39-1.32.74-2.01,1.04-.09.04-.19.07-.28.11-.49.22.72-.27.71-.27-.07-.04-.45.16-.55.19-.35.11-.71.21-1.07.29-.19.04-.39.08-.58.11-.23.04-.94.11.02.02,1.02-.1-.19-.01-.48-.02-2.35-.07-4.66,1.94-4.63,4.37.03,2.44,1.86,4.55,4.37,4.63h0Z"/>
          <path class="cls-2" d="m490.79,399.68c-.55-.49,31.46-18.66,64.57,2.34"/>
        </g>
        <path class="cls-12" d="m510.63,297.02c.37.8-.13-.32-.24-.58-.16-.38-.32-.76-.47-1.15-.36-.91-.7-1.84-1.02-2.77-.63-1.86-1.16-3.75-1.61-5.67-.22-.95-.43-1.91-.61-2.87-.02-.09-.19-1.01-.11-.55.07.41-.06-.33-.06-.33-.1-.61-.19-1.22-.28-1.83-.3-2.11-.52-4.23-.67-6.36-.64-9.01-.12-17.37,1.35-26.09.74-4.4,1.72-8.76,2.95-13.05.29-1.01.59-2.01.91-3.01.17-.53.34-1.06.52-1.59.07-.19.48-1.38.32-.93.73-2.03,1.53-4.04,2.41-6.01,1.58-3.56,3.42-6.97,5.54-10.23.5-.77-.27.38.2-.29.24-.34.47-.68.71-1.02.48-.69.96-1.37,1.45-2.06.96-1.34,1.93-2.68,2.92-4,4.3-5.73,8.95-11.21,14.03-16.28,1.36-1.36,2.75-2.68,4.16-3.98.7-.64,1.41-1.27,2.12-1.9.33-.29.67-.58,1-.87.58-.5-.48.41.1-.09.23-.19.46-.39.69-.58,3.25-2.7,6.63-5.24,10.12-7.62,7.91-5.4,16.43-10,25.06-13.71,9.71-4.16,19.78-7.67,30.18-9.63,9.06-1.71,19.07-2.17,28.55-1.99,5.01.1,10.02.37,15.03.73.59.04,1.18.08,1.76.13-.59-.05.52.05.68.07,1.08.11,2.15.23,3.22.36,2.11.27,4.22.59,6.31.96,18.14,3.22,35.01,9.7,51.16,18.59,8.28,4.55,15.6,9.32,22.9,15.1,3.5,2.77,6.88,5.69,10.1,8.78,1.56,1.5,3.09,3.04,4.57,4.62.7.75,1.39,1.51,2.08,2.27.36.41.73.82,1.08,1.24-.43-.5.43.52.57.68,3.67,4.43,6.96,9.17,9.98,14.06,1.43,2.31,2.79,4.67,4.08,7.06.67,1.25,1.33,2.51,1.96,3.77.31.62.62,1.25.92,1.88.09.2.58,1.22.3.63s.21.46.29.64c2.62,5.72,4.84,11.61,6.64,17.63.96,3.22,1.81,6.47,2.54,9.75.38,1.7.72,3.41,1.04,5.13.05.26.09.52.14.77-.01-.07-.12-.69-.03-.18.07.39.13.78.19,1.18.15.92.29,1.85.42,2.78,1.09,7.68,1.55,15.45,1.44,23.21-.12,8.77-.86,16.43-2.32,25.17-1.64,9.82-4.06,19.51-7.07,29-2.89,9.12-6.16,18.21-10.9,26.55-4.28,7.52-9.35,14.12-15.48,20.68-6.52,6.98-13.11,12.69-20.7,18.28-16.37,12.07-34.41,21.33-53.39,28.28-18.05,6.62-36.21,10.31-55.33,11.12-17.7.75-34.54-.81-51.85-4.8-3.99-.92-7.94-1.96-11.86-3.13-1.9-.57-3.8-1.17-5.69-1.8-.89-.3-1.79-.6-2.67-.92.66.23-.56-.21-.74-.27-.47-.17-.94-.34-1.41-.52-6.9-2.59-13.65-5.61-20.11-9.17-7.11-3.92-13.32-8.23-19.55-13.46-7.42-6.23-14.11-13.17-19.81-20.61-11.75-15.35-19.9-32.58-23.45-51.66-.77-4.12-1.31-9.12-1.53-13.64-.05-1.02-.13-2.09-.01-2.71.03-.16.32-1.16.19-.81.1-.25.77-1.4.6-1.18,1.29-1.71,3.25-3.31,4.81-4.62,8.11-6.84,17.66-11.6,27.68-14.85s19.96-5.04,30.2-5.56c9.63-.48,19.72.43,28.63,3.7,4.23,1.55,8.57,3.7,12.17,6.16,3.48,2.38,7.21,5.81,9.67,8.91,1.51,1.91,4.04,2.75,6.22,1.34,1.89-1.22,2.86-4.3,1.34-6.22-13.6-17.18-35.49-23.66-56.74-22.95-10.95.36-22.01,2.28-32.48,5.49s-21.13,8.19-29.97,15.12c-4.31,3.38-9.29,7.13-10.89,12.61-.73,2.52-.48,5.25-.31,7.84s.41,4.95.74,7.42c1.35,10.06,3.94,19.92,7.76,29.33,7.71,18.99,19.8,36.1,34.93,49.91,12.39,11.31,26.74,20.05,42.28,26.28,16.02,6.42,32.92,10.59,50.05,12.55,19.31,2.21,38.78,1.75,57.93-1.63,20.56-3.63,40.32-11,58.9-20.46,18.16-9.25,35.31-21.02,49.51-35.71,6.57-6.8,12.44-14.29,17.29-22.41,5.19-8.69,8.68-18.19,11.85-27.77,6.16-18.62,10.01-38.04,10.47-57.68.36-15.44-1.55-30.99-5.91-45.82-3.54-12.06-8.76-23.67-15.36-34.37-8.06-13.07-18.35-24.43-30.42-33.92-15.36-12.08-32.83-21.61-51.22-28.19-8.95-3.21-18.1-5.83-27.49-7.42-9.69-1.65-19.63-2.17-29.44-2.31-10.26-.14-20.48.59-30.56,2.56-10.78,2.11-21.24,5.86-31.27,10.3-17.22,7.63-33.04,17.93-46.28,31.4-5.12,5.21-9.8,10.84-14.14,16.72-4.66,6.33-8.91,12.79-11.94,20.08-7.16,17.23-10.19,36.82-8.44,55.41.79,8.48,2.69,16.71,6.32,24.43,1.04,2.2,4.37,2.54,6.22,1.34,2.27-1.46,2.38-4.01,1.34-6.22h0Z"/>
      </g>
      <g id="_рука-2" data-name="рука">
        <rect class="cls-9" x="715.58" y="438.01" width="68.01" height="103" transform="translate(-136.17 619.64) rotate(-41.5)"/>
        <path class="cls-3" d="m701.96,483c-22-26-14.64-53.59,10-62,41-14,62.1,49.25,82.1,60.25"/>
        <path class="cls-3" d="m779.06,492.25c14.11-5.77,29.87-21.42,39.35-31.9,5.85-6.47,14.13-10.21,22.84-10.37l38.8-.73c21.69.12,31,32-8.22,46.12-12.84,4.62-23.78,23.88-32.78,32.88-45.96,45.96-88.1,43.75-114.1-1.25"/>
      </g>
      <ellipse class="cls-11" cx="634.71" cy="258.74" rx="8.72" ry="9.98" transform="translate(-39.37 134.55) rotate(-11.74)"/>
      <path class="cls-12" d="m567.99,524.86c-15.83,0-29.56-4.3-39.04-9.93-12.08-7.18-22-19.23-22-29.58,0-2.76,2.24-5,5-5s5,2.24,5,5c0,6.73,8.14,15.65,17.11,20.98,16.71,9.93,46.05,13.17,73.91-1.99,2.43-1.32,5.46-.42,6.78,2,1.32,2.42.42,5.46-2,6.78-15.57,8.48-30.97,11.74-44.76,11.74Z"/>
    </g>
    <line class="cls-6" x1="5" y1="595.22" x2="981.08" y2="595.22"/>
    <g>
      <ellipse class="cls-8" cx="91.46" cy="503.5" rx="41.5" ry="30.5"/>
      <ellipse class="cls-8" cx="405.96" cy="504" rx="41.5" ry="30.5"/>
      <rect class="cls-5" x="91.72" y="377.67" width="314.01" height="192.23" rx="42.05" ry="42.05"/>
      <rect class="cls-1" x="91.72" y="401.67" width="314.01" height="192.23" rx="19.49" ry="19.49"/>
      <text class="cls-10" transform="translate(146.58 536.14)"><tspan x="0" y="0">404</tspan></text>
      <circle class="cls-1" cx="248.46" cy="374.5" r="25.5"/>
    </g>
    <path class="cls-13" d="m244.89,307.09c-3.32,0-6.02-2.69-6.02-6.02,0-15.95,5.91-24.24,11.12-31.55,4.77-6.69,8.88-12.46,8.88-24.56s-4.12-17.88-8.88-24.56c-5.21-7.31-11.12-15.6-11.12-31.55s5.91-24.24,11.12-31.55c4.77-6.69,8.88-12.46,8.88-24.56,0-3.32,2.69-6.02,6.02-6.02s6.02,2.69,6.02,6.02c0,15.95-5.91,24.24-11.12,31.55-4.77,6.69-8.88,12.46-8.88,24.56s4.12,17.88,8.88,24.56c5.21,7.31,11.12,15.6,11.12,31.55s-5.91,24.24-11.12,31.55c-4.77,6.69-8.88,12.46-8.88,24.56,0,3.32-2.69,6.02-6.02,6.02Z"/>
    <path class="cls-13" d="m326.39,348.25c-3.32,0-6.02-2.69-6.02-6.02,0-11.86,6.62-17.96,11.94-22.87,5.15-4.75,8.06-7.74,8.06-14.02s-2.91-9.27-8.06-14.02c-5.32-4.9-11.94-11.01-11.94-22.87s6.62-17.96,11.94-22.87c5.15-4.75,8.06-7.74,8.06-14.02,0-3.32,2.69-6.02,6.02-6.02s6.02,2.69,6.02,6.02c0,11.86-6.62,17.96-11.94,22.87-5.15,4.75-8.06,7.74-8.06,14.02s2.91,9.27,8.06,14.02c5.32,4.9,11.94,11.01,11.94,22.87s-6.62,17.96-11.94,22.87c-5.15,4.75-8.06,7.74-8.06,14.02,0,3.32-2.69,6.02-6.02,6.02Z"/>
    <path class="cls-13" d="m153.39,348.25c-3.32,0-6.02-2.69-6.02-6.02,0-11.86,6.62-17.96,11.94-22.87,5.15-4.75,8.06-7.74,8.06-14.02s-2.91-9.27-8.06-14.02c-5.32-4.9-11.94-11.01-11.94-22.87s6.62-17.96,11.94-22.87c5.15-4.75,8.06-7.74,8.06-14.02,0-3.32,2.69-6.02,6.02-6.02s6.02,2.69,6.02,6.02c0,11.86-6.62,17.96-11.94,22.87-5.15,4.75-8.06,7.74-8.06,14.02s2.91,9.27,8.06,14.02c5.32,4.9,11.94,11.01,11.94,22.87s-6.62,17.96-11.94,22.87c-5.15,4.75-8.06,7.74-8.06,14.02,0,3.32-2.69,6.02-6.02,6.02Z"/>
  </g>
</svg>